/* XPM */
static char * wrogue_xpm[] = {
"32 32 256 2",
"  	c #040204",
". 	c #545654",
"+ 	c #2C2E2C",
"@ 	c #6C0204",
"# 	c #1C1A1C",
"$ 	c #6C1E1C",
"% 	c #AC2E2C",
"& 	c #440204",
"* 	c #9C0604",
"= 	c #444244",
"- 	c #848284",
"; 	c #9C0E0C",
"> 	c #0C0E0C",
", 	c #A41A1C",
"' 	c #9C5E5C",
") 	c #441E1C",
"! 	c #3C0E0C",
"~ 	c #6C6A6C",
"{ 	c #3C3A3C",
"] 	c #8C4244",
"^ 	c #BC0E0C",
"/ 	c #5C0604",
"( 	c #4C4E4C",
"_ 	c #AC2624",
": 	c #240204",
"< 	c #8C0204",
"[ 	c #4C2E2C",
"} 	c #242624",
"| 	c #B43234",
"1 	c #646264",
"2 	c #9C1614",
"3 	c #C41A1C",
"4 	c #0C0A0C",
"5 	c #343634",
"6 	c #4C0A0C",
"7 	c #140204",
"8 	c #6C0A0C",
"9 	c #B40604",
"0 	c #644644",
"a 	c #A4A2A4",
"b 	c #340E0C",
"c 	c #4C2624",
"d 	c #B43A3C",
"e 	c #B42224",
"f 	c #745A5C",
"g 	c #3C1A1C",
"h 	c #8C2224",
"i 	c #540604",
"j 	c #8C8E8C",
"k 	c #9C1214",
"l 	c #7C7A7C",
"m 	c #BC1614",
"n 	c #5C4E4C",
"o 	c #040604",
"p 	c #442E2C",
"q 	c #242224",
"r 	c #440604",
"s 	c #4C4A4C",
"t 	c #640E0C",
"u 	c #5C3A3C",
"v 	c #C44244",
"w 	c #5C0A0C",
"x 	c #940A0C",
"y 	c #2C2A2C",
"z 	c #C43234",
"A 	c #7C0A0C",
"B 	c #5C5E5C",
"C 	c #1C1E1C",
"D 	c #943634",
"E 	c #A40A0C",
"F 	c #544244",
"G 	c #8C8A8C",
"H 	c #AC0E0C",
"I 	c #141614",
"J 	c #541A1C",
"K 	c #747274",
"L 	c #3C3E3C",
"M 	c #B41214",
"N 	c #545254",
"O 	c #BC2624",
"P 	c #340204",
"Q 	c #840604",
"R 	c #746664",
"S 	c #AC1614",
"T 	c #BC1E1C",
"U 	c #443634",
"V 	c #BC0A0C",
"W 	c #241614",
"X 	c #642A2C",
"Y 	c #C42224",
"Z 	c #942A2C",
"` 	c #641614",
" .	c #0C0204",
"..	c #5C5A5C",
"+.	c #343234",
"@.	c #7C0204",
"#.	c #241A1C",
"$.	c #742224",
"%.	c #4C0204",
"&.	c #AC0204",
"*.	c #444644",
"=.	c #848684",
"-.	c #A40E0C",
";.	c #141214",
">.	c #9C1E1C",
",.	c #D45654",
"'.	c #6C6E6C",
").	c #844E4C",
"!.	c #640604",
"~.	c #544E4C",
"{.	c #2C0204",
"].	c #5C3234",
"^.	c #2C2624",
"/.	c #BC3234",
"(.	c #646664",
"_.	c #A41614",
":.	c #3C3634",
"<.	c #540A0C",
"[.	c #1C0204",
"}.	c #6C0E0C",
"|.	c #BC0604",
"1.	c #6C4644",
"2.	c #542A2C",
"3.	c #CC3E3C",
"4.	c #BC2224",
"5.	c #845A5C",
"6.	c #942224",
"7.	c #949294",
"8.	c #A41214",
"9.	c #CC5254",
"0.	c #947674",
"a.	c #AC3634",
"b.	c #645254",
"c.	c #5C1214",
"d.	c #C42A2C",
"e.	c #443234",
"f.	c #C43634",
"g.	c #7C0E0C",
"h.	c #541E1C",
"i.	c #C41614",
"j.	c #0C0604",
"k.	c #4C0604",
"l.	c #640A0C",
"m.	c #342A2C",
"n.	c #443E3C",
"o.	c #BC1214",
"p.	c #8C0604",
"q.	c #C41E1C",
"r.	c #2C1614",
"s.	c #E70437",
"t.	c #12D492",
"u.	c #00777C",
"v.	c #890808",
"w.	c #028806",
"x.	c #49D115",
"y.	c #007700",
"z.	c #23FF08",
"A.	c #04FF00",
"B.	c #00FFA7",
"C.	c #00FF00",
"D.	c #60FF00",
"E.	c #9B8700",
"F.	c #D1D100",
"G.	c #777700",
"H.	c #006800",
"I.	c #00B300",
"J.	c #00D100",
"K.	c #007700",
"L.	c #0100C8",
"M.	c #0000E9",
"N.	c #000012",
"O.	c #000000",
"P.	c #009DFD",
"Q.	c #007500",
"R.	c #00D281",
"S.	c #00777C",
"T.	c #00F205",
"U.	c #000101",
"V.	c #002D81",
"W.	c #00007C",
"X.	c #0082C0",
"Y.	c #0000ED",
"Z.	c #000015",
"`.	c #000000",
" +	c #480082",
".+	c #020000",
"++	c #D70081",
"@+	c #77007C",
"#+	c #020000",
"$+	c #7F0000",
"%+	c #000000",
"&+	c #000000",
"*+	c #002C08",
"=+	c #007E00",
"-+	c #D176A7",
";+	c #770000",
">+	c #F27309",
",+	c #01B303",
"'+	c #2DD100",
")+	c #007700",
"!+	c #F24601",
"~+	c #010100",
"{+	c #2D2700",
"]+	c #000000",
"^+	c #401898",
"/+	c #55E9E9",
"(+	c #331212",
"_+	c #000000",
":+	c #D000F8",
"<+	c #E700F7",
"[+	c #120012",
"}+	c #000000",
"|+	c #2301F8",
"1+	c #3600F7",
"2+	c #0F0012",
"3+	c #5B0000",
"4+	c #F200F3",
"5+	c #010099",
"6+	c #2D0083",
"7+	c #00007C",
"8+	c #01AC08",
"9+	c #00E801",
"0+	c #001281",
"a+	c #00007C",
"b+	c #0000FF",
"c+	c #0000FF",
"d+	c #0000FF",
"e+	c #0000FF",
"f+	c #00F805",
"g+	c #00F701",
"h+	c #001281",
"i+	c #00007C",
"j+	c #F29454",
"k+	c #0104EC",
"l+	c #2DD441",
"m+	c #007700",
"n+	c #9D78C0",
"o+	c #75B3CA",
"p+	c #D2D115",
"q+	c #777700",
"r+	c #29FF82",
"s+	c #4EFF00",
"t+	c #0FFF81",
"u+	c #5BFF7C",
"v+	c #F27323",
"w+	c #01B304",
"x+	c #2DD100",
"y+	c #007700",
"z+	c #02391E",
"A+	c #00E6DF",
"B+	c #00D1D1",
"C+	c #007777",
"D+	c #9D182F",
"E+	c #757EFE",
"F+	c #D27680",
"G+	c #77007C",
"                              } I                               ",
"                              . {                               ",
"                            o ~ s o                             ",
"                            q =.s I                             ",
"                          o = =.L + o                           ",
"          o ;.            C *.N 5 +.#             o             ",
"          > K = 4         # + s { C ;.        > = L o           ",
"            + 7.( +.#     ;.} s 5 C 4     } N ~ B y             ",
"            I *.j 5 C > *.'.N s { 5 N C o y =.l 5 >             ",
"            o +.+ = { N . + + s 5 # y . s 1 *.q C o             ",
"              I 4 + ~.F h.i c.0 u r.j.C ~ N q 4 >               ",
"               .b ] Z a.O |.V 3.% 2 A ' ).c m.o                 ",
"              : >.q.< [.   .        t M ^ H D ` 7  .            ",
"        o q C t m [.    T 9.f.q.3 -.!.!. .  P A / U +           ",
"    > y ..1 5 $.-.7   Q z t   A !.[.[.m 9     2 g *.~ L y 4     ",
"> s K =.j G ( 5.d.k.  O 9.  i /.3   ; 3.k.  _ f '.=.a ( ( L y 4 ",
"> + { { +.y +.U 6.E   * q.  ^ a.m   4.^   k [ { *.N 5 y y } C 4 ",
"    o I C } # I ) ;    .V  .!.4.i   x   * ! #.} # C } C >       ",
"          > > j.e.X &.  & @ r e a.; : E @ 7 { + 4 > >           ",
"                I b.$ 4.    9 | | ^ i , 2.^.(.#                 ",
"                  { R 0._.[.  !.!.& @ p B *.y o                 ",
"              5 I (.- ^.h.< @.P 2 !   y n.~ L 4 C               ",
"            o B =.~ + q n.0 h h ].y . . q L =.= L 4             ",
"            I B = q > 4 I y +.n n.y + I   I 5 { { I             ",
"            +.= } ;.>     o q '.= # o     # } y +.C             ",
"          o 5 C o         C +.- s q I         o # } 4           ",
"            o             q = j 5 + I             o             ",
"                          o 5 { } q o                           ",
"                            C L + ;.                            ",
"                            o 5 y o                             ",
"                              } C                               ",
"                              4 >                               "};
